Coordinates
version=1
nRows=16
nColumns=22
inDegrees=yes

Units are S.I. units (second, meters, Newtons, ...)
If the header above contains a line with 'inDegrees', this indicates whether rotational values are in degrees (yes) or radians (no).

endheader
time	pelvis_tilt	pelvis_list	pelvis_rotation	pelvis_tx	pelvis_ty	pelvis_tz	hip_flexion_r	hip_adduction_r	hip_rotation_r	knee_angle_r	ankle_angle_r	subtalar_angle_r	hip_flexion_l	hip_adduction_l	hip_rotation_l	knee_angle_l	ankle_angle_l	subtalar_angle_l	lumbar_extension	lumbar_bending	lumbar_rotation
      4.45000000	     -0.36612033	     -1.06399887	     -3.44620217	     -1.09715764	      1.07610961	     -0.28098727	     -0.03062267	      5.38689102	     -3.47357812	    -12.97896073	     13.25974090	     -8.91618530	     22.65704743	     -3.78862811	      0.06719767	    -43.04251608	     12.39225249	      0.63312401	    -10.51605084	     -2.77092168	     -1.76578455
      4.46000000	     -0.33227855	     -1.16218629	     -3.43206912	     -1.09920214	      1.07622792	     -0.28119207	      0.05442517	      5.48350652	     -3.48284437	    -12.99466558	     13.16586295	     -8.90342013	     22.16004783	     -3.83640371	      0.47685795	    -43.38064612	     12.45401958	      0.50967795	    -10.37031303	     -2.63387719	     -1.89105248
      4.47000000	     -0.28791936	     -1.25449247	     -3.41590087	     -1.10111036	      1.07636112	     -0.28141121	      0.11343118	      5.57173625	     -3.49208728	    -12.99664503	     13.07705866	     -8.87399369	     21.61554933	     -3.89267728	      0.83496536	    -43.61232398	     12.51663399	      0.38839312	    -10.23141849	     -2.50847629	     -2.02058800
      4.48000000	     -0.25536737	     -1.34286626	     -3.40247665	     -1.10285656	      1.07647950	     -0.28165413	      0.16163492	      5.65487670	     -3.48607356	    -12.97199712	     13.00004040	     -8.83782334	     21.03879654	     -3.96035945	      1.14313930	    -43.72105269	     12.60148571	      0.29525113	    -10.06699209	     -2.38407779	     -2.14661202
      4.49000000	     -0.21225555	     -1.43736476	     -3.38931194	     -1.10449216	      1.07660561	     -0.28191357	      0.19012065	      5.74176040	     -3.49076745	    -12.94442326	     12.92092979	     -8.78405458	     20.41822525	     -4.05168718	      1.39687277	    -43.71660539	     12.67009004	      0.20745805	     -9.91366806	     -2.25379973	     -2.27794131
      4.50000000	     -0.17481178	     -1.53074594	     -3.38371162	     -1.10602002	      1.07670905	     -0.28217897	      0.21373725	      5.82625786	     -3.48585438	    -12.90951813	     12.85347486	     -8.71776005	     19.77119658	     -4.16183284	      1.58999019	    -43.59557072	     12.73109550	      0.13600477	     -9.75061885	     -2.12798948	     -2.40175416
      4.51000000	     -0.11892146	     -1.62451947	     -3.38796055	     -1.10745144	      1.07682223	     -0.28246352	      0.21486723	      5.90673738	     -3.47528748	    -12.88264437	     12.80774056	     -8.62203561	     19.07479046	     -4.28896870	      1.72152775	    -43.36007273	     12.74677196	      0.07361445	     -9.60933152	     -2.00256925	     -2.51826581
      4.52000000	     -0.12129257	     -1.73032450	     -3.38483413	     -1.10877476	      1.07681414	     -0.28277832	      0.26077584	      6.00360137	     -3.46532791	    -12.83438467	     12.74994454	     -8.56145798	     18.42192087	     -4.44172217	      1.82011204	    -43.02685856	     12.81006796	      0.04985735	     -9.39488147	     -1.86003910	     -2.63487001
      4.53000000	     -0.10071650	     -1.84805353	     -3.37792910	     -1.11002411	      1.07681475	     -0.28313148	      0.28055601	      6.10930800	     -3.45880253	    -12.79358518	     12.70340674	     -8.48623606	     17.72716741	     -4.61147477	      1.88950875	    -42.59384528	     12.83320918	      0.04393643	     -9.21180426	     -1.70459827	     -2.75030160
      4.54000000	     -0.08518206	     -1.96706890	     -3.36356375	     -1.11118803	      1.07677283	     -0.28353878	      0.30143164	      6.21361667	     -3.46228880	    -12.75377318	     12.68114057	     -8.41039618	     17.02634019	     -4.78718781	      1.92695379	    -42.06940543	     12.84435458	      0.05994913	     -9.02340510	     -1.54456468	     -2.87891523
      4.55000000	     -0.07603275	     -2.09422579	     -3.33115348	     -1.11229724	      1.07669171	     -0.28403168	      0.33081736	      6.32317843	     -3.47628954	    -12.72263975	     12.66417779	     -8.34058286	     16.33010482	     -4.96635360	      1.95921741	    -41.46416592	     12.85638633	      0.09787964	     -8.83377332	     -1.36745297	     -3.02103116
      4.56000000	     -0.07439039	     -2.22734324	     -3.28304337	     -1.11333135	      1.07656981	     -0.28459715	      0.36919855	      6.43594688	     -3.50909932	    -12.70021460	     12.65045786	     -8.27926109	     15.64198709	     -5.14525304	      1.99088157	    -40.78664481	     12.87940483	      0.15788036	     -8.63844062	     -1.17938604	     -3.17697380
      4.57000000	     -0.08038756	     -2.35999083	     -3.22081365	     -1.11428151	      1.07641531	     -0.28523385	      0.41402705	      6.54452614	     -3.56362308	    -12.68107573	     12.64492269	     -8.22392023	     14.96451897	     -5.31747423	      2.01852182	    -40.04032966	     12.90957510	      0.24245385	     -8.43249440	     -0.98949348	     -3.33965981
      4.58000000	     -0.07110199	     -2.48934748	     -3.14715361	     -1.11514700	      1.07627806	     -0.28595614	      0.43519182	      6.64397241	     -3.63128001	    -12.65442473	     12.65071616	     -8.15773288	     14.27136533	     -5.47703382	      2.03969315	    -39.22252975	     12.93872365	      0.37106544	     -8.24631715	     -0.79611684	     -3.51427216
      4.59000000	     -0.05310858	     -2.60600069	     -3.07586307	     -1.11590809	      1.07615144	     -0.28672495	      0.44035356	      6.72623208	     -3.69327386	    -12.62574244	     12.68637498	     -8.07472295	     13.56864952	     -5.62031703	      2.03534110	    -38.33801026	     12.93978027	      0.55325671	     -8.06440203	     -0.61861046	     -3.68132174
      4.60000000	     -0.03736743	     -2.71474927	     -3.00059859	     -1.11658729	      1.07602475	     -0.28756818	      0.44843174	      6.79520337	     -3.76932957	    -12.60467763	     12.71100870	     -7.99670385	     12.87091234	     -5.74710062	      2.01867046	    -37.39028923	     12.96616962	      0.74407586	     -7.87826795	     -0.44508785	     -3.85502631
